<?xml version="1.0" encoding="utf-8"?>
<!-- Generator: Adobe Illustrator 16.0.0, SVG Export Plug-In . SVG Version: 6.00 Build 0)  -->
<!DOCTYPE svg PUBLIC "-//W3C//DTD SVG 1.1//EN" "http://www.w3.org/Graphics/SVG/1.1/DTD/svg11.dtd">
<svg version="1.1" id="Layer_1" xmlns="http://www.w3.org/2000/svg" xmlns:xlink="http://www.w3.org/1999/xlink" x="0px" y="0px"
	 width="299.667px" height="197.667px" viewBox="0 0 299.667 197.667" enable-background="new 0 0 299.667 197.667"
	 xml:space="preserve">
<g>
	
		<line fill="none" stroke="#CCCCCC" stroke-linecap="round" stroke-linejoin="round" stroke-miterlimit="10" x1="87.017" y1="95.892" x2="84.664" y2="37.24"/>
	<g id="XMLID_1_">
		
			<line fill="none" stroke="#CCCCCC" stroke-linecap="round" stroke-linejoin="round" stroke-miterlimit="10" x1="87.017" y1="95.892" x2="100.41" y2="172.003"/>
		
			<polygon id="XMLID_25_" fill="none" stroke="#CCCCCC" stroke-linecap="round" stroke-linejoin="round" stroke-miterlimit="10" points="
			224.183,64.14 176.527,27.063 140.285,93.813 		"/>
		
			<polygon id="XMLID_24_" fill="none" stroke="#CCCCCC" stroke-linecap="round" stroke-linejoin="round" stroke-miterlimit="10" points="
			180.159,118.481 224.183,64.14 140.285,93.813 140.283,93.813 		"/>
		
			<polygon id="XMLID_23_" fill="none" stroke="#CCCCCC" stroke-linecap="round" stroke-linejoin="round" stroke-miterlimit="10" points="
			176.527,27.063 87.015,34.996 140.285,93.813 		"/>
		
			<polygon id="XMLID_22_" fill="none" stroke="#CCCCCC" stroke-linecap="round" stroke-linejoin="round" stroke-miterlimit="10" points="
			140.283,93.813 27.895,98.71 140.285,93.813 		"/>
		
			<polygon id="XMLID_21_" fill="none" stroke="#CCCCCC" stroke-linecap="round" stroke-linejoin="round" stroke-miterlimit="10" points="
			87.015,34.996 27.895,98.71 140.285,93.813 		"/>
		
			<polygon id="XMLID_20_" fill="none" stroke="#CCCCCC" stroke-linecap="round" stroke-linejoin="round" stroke-miterlimit="10" points="
			180.159,118.481 100.41,172.003 140.283,93.813 		"/>
		
			<polygon id="XMLID_19_" fill="none" stroke="#CCCCCC" stroke-linecap="round" stroke-linejoin="round" stroke-miterlimit="10" points="
			27.895,98.71 100.41,172.003 140.283,93.813 		"/>
		
			<polygon id="XMLID_18_" fill="none" stroke="#CCCCCC" stroke-linecap="round" stroke-linejoin="round" stroke-miterlimit="10" points="
			180.159,118.481 160.807,177.489 100.41,172.003 		"/>
		
			<polygon id="XMLID_17_" fill="none" stroke="#CCCCCC" stroke-linecap="round" stroke-linejoin="round" stroke-miterlimit="10" points="
			224.183,64.14 271.96,82.079 213.604,127.644 180.159,118.481 		"/>
		
			<polyline id="XMLID_16_" fill="none" stroke="#CCCCCC" stroke-linecap="round" stroke-linejoin="round" stroke-miterlimit="10" points="
			172.503,140.511 160.807,177.489 251.854,168.562 		"/>
		
			<polygon id="XMLID_15_" fill="none" stroke="#CCCCCC" stroke-linecap="round" stroke-linejoin="round" stroke-miterlimit="10" points="
			271.96,82.079 251.854,168.562 213.604,127.644 		"/>
		
			<ellipse id="XMLID_14_" transform="matrix(0.9998 -0.0203 0.0203 0.9998 -1.8776 2.8705)" fill="#EF5350" cx="140.285" cy="93.813" rx="2.354" ry="2.072"/>
		
			<ellipse id="XMLID_13_" transform="matrix(0.9998 -0.0203 0.0203 0.9998 -1.2575 4.5703)" fill="#EF5350" cx="224.181" cy="64.14" rx="2.354" ry="2.074"/>
		<path id="XMLID_12_" fill="#EF5350" d="M182.513,118.433c0.025,1.146-1.011,2.095-2.312,2.121
			c-1.299,0.027-2.372-0.88-2.395-2.024c-0.023-1.146,1.012-2.094,2.311-2.122C181.42,116.383,182.491,117.289,182.513,118.433z"/>
		
			<ellipse id="XMLID_11_" transform="matrix(0.9998 -0.0199 0.0199 0.9998 -2.4984 4.277)" fill="#EF5350" cx="213.604" cy="127.643" rx="2.355" ry="2.073"/>
		
			<ellipse id="XMLID_10_" transform="matrix(0.9998 -0.0205 0.0205 0.9998 -1.6275 5.5997)" fill="#EF5350" cx="271.961" cy="82.079" rx="2.355" ry="2.074"/>
		<path id="XMLID_9_" fill="#EF5350" d="M254.208,168.514c0.023,1.146-1.01,2.096-2.311,2.123c-1.301,0.026-2.375-0.882-2.395-2.025
			c-0.025-1.146,1.01-2.095,2.311-2.12C253.114,166.464,254.185,167.371,254.208,168.514z"/>
		
			<ellipse id="XMLID_8_" transform="matrix(0.9998 -0.0203 0.0203 0.9998 -3.5747 3.3055)" fill="#EF5350" cx="160.808" cy="177.49" rx="2.354" ry="2.074"/>
		
			<ellipse id="XMLID_7_" transform="matrix(0.9998 -0.0203 0.0203 0.9998 -1.9313 1.7887)" fill="#EF5350" cx="87.017" cy="95.891" rx="2.354" ry="2.074"/>
		
			<ellipse id="XMLID_6_" transform="matrix(0.9998 -0.0203 0.0203 0.9998 -3.475 2.0762)" fill="#EF5350" cx="100.41" cy="172.002" rx="2.354" ry="2.074"/>
		
			<ellipse id="XMLID_5_" transform="matrix(0.9998 -0.0199 0.0199 0.9998 -1.8407 2.8127)" fill="#EF5350" cx="140.284" cy="93.813" rx="2.353" ry="2.073"/>
		
			<ellipse id="XMLID_4_" transform="matrix(0.9998 -0.0199 0.0199 0.9998 -1.9605 0.5752)" fill="#EF5350" cx="27.895" cy="98.712" rx="2.353" ry="2.073"/>
		
			<ellipse id="XMLID_3_" transform="matrix(0.9998 -0.0201 0.0201 0.9998 -0.6867 1.7583)" fill="#EF5350" cx="87.016" cy="34.997" rx="2.354" ry="2.073"/>
		<path id="XMLID_2_" fill="#EF5350" d="M178.881,27.016c0.023,1.146-1.012,2.094-2.31,2.121c-1.303,0.026-2.376-0.882-2.397-2.025
			c-0.021-1.145,1.012-2.094,2.312-2.12C177.786,24.965,178.858,25.871,178.881,27.016z"/>
		<path fill="none" stroke="#CCCCCC" stroke-linecap="round" stroke-linejoin="round" stroke-miterlimit="10" d="M113.41,64.14"/>
		<path fill="none" stroke="#CCCCCC" stroke-linecap="round" stroke-linejoin="round" stroke-miterlimit="10" d="M87.017,95.892"/>
	</g>
	<g>
		<defs>
			<circle id="SVGID_17_" cx="27.895" cy="98.222" r="25.807"/>
		</defs>
		<use xlink:href="#SVGID_17_"  overflow="visible" fill="#FFFFFF"/>
		<clipPath id="SVGID_2_">
			<use xlink:href="#SVGID_17_"  overflow="visible"/>
		</clipPath>
		<g clip-path="url(#SVGID_2_)">
			<path fill="#099DCB" d="M41.498,120.579c0,5.243-4.25,9.494-9.494,9.494h-7.445c-5.243,0-9.494-4.251-9.494-9.494v-0.671
				c0-5.244,4.251-9.495,9.494-9.495h7.445c5.244,0,9.494,4.251,9.494,9.495V120.579z"/>
			<path fill="#0C93BD" d="M32.004,110.413h-3.723v19.66h3.723c5.244,0,9.494-4.251,9.494-9.494v-0.671
				C41.498,114.664,37.248,110.413,32.004,110.413z"/>
			<path fill="#E8AC86" d="M32.691,112.371c0.002,2.944-4.405,5.867-4.405,5.867s-4.411-2.917-4.414-5.86
				c-0.002-2.944,1.894-3.724,4.405-3.726C30.791,108.65,32.688,109.427,32.691,112.371z"/>
			<path fill="#F7B78F" d="M32.041,111.586c0,2.077-1.684,3.76-3.76,3.76l0,0c-2.076,0-3.759-1.683-3.759-3.76v-5.868
				c0-2.075,1.683-3.758,3.759-3.758l0,0c2.076,0,3.76,1.683,3.76,3.758V111.586z"/>
			<path fill="#E8AC86" d="M28.281,101.96c-2.076,0-3.759,1.683-3.759,3.758v3.185c1.084,0.382,2.374,0.603,3.759,0.603
				c1.386,0,2.676-0.221,3.76-0.603v-3.185C32.041,103.643,30.357,101.96,28.281,101.96z"/>
			<path fill="#623016" d="M41.498,97.099c0,0-0.973,5.01-4.35,6.36c-0.312-1.127,2.413-13.468,4.195-12.55
				C41.426,91.612,41.664,96.518,41.498,97.099z"/>
			<circle fill="#F7B78F" cx="27.104" cy="94.532" r="13.957"/>
			<circle fill="#F7B78F" cx="42.062" cy="94.532" r="2.921"/>
			<path fill="#FFFFFF" d="M33.348,97.775c0,3.809-3.087,6.896-6.895,6.896c-3.809,0-6.895-3.087-6.895-6.896H33.348z"/>
			<g>
				<circle fill="#262626" cx="19.67" cy="94.567" r="1.563"/>
				<circle fill="#262626" cx="32.427" cy="94.567" r="1.563"/>
			</g>
			<path fill="#623016" d="M34.869,86.069c0,0,4.607,6.106,6.586,5.757c-0.606-7.976-5.545-12.731-14.354-12.731
				c-7.236,0-12.813,5.474-13.955,12.387C14.968,91.469,26.881,92.306,34.869,86.069z"/>
			<g>
				<path fill="#623016" d="M35.138,84.698c0,0,0.075,0.053,0.166,0.207c0.086,0.151,0.195,0.412,0.2,0.76
					c0.016,0.35-0.044,0.784-0.219,1.227c-0.164,0.459-0.434,0.903-0.764,1.364c-0.335,0.448-0.74,0.881-1.196,1.298
					c-0.458,0.4-0.962,0.796-1.506,1.146l-0.102,0.069l-0.051,0.034l-0.013,0.009l-0.096,0.046l-0.024,0.014l-0.197,0.114
					l-0.404,0.219c-0.244,0.147-0.586,0.296-0.951,0.426c-0.731,0.305-1.386,0.451-2.061,0.625c-1.342,0.281-2.67,0.399-3.905,0.399
					c-1.234-0.007-2.38-0.118-3.358-0.298c-1.958-0.338-3.263-0.938-3.263-0.938s0.307-0.196,0.847-0.456
					c0.537-0.273,1.312-0.591,2.232-0.923c0.924-0.32,1.993-0.641,3.128-0.915c0.568-0.136,1.139-0.291,1.731-0.398
					c0.573-0.125,1.155-0.251,1.738-0.377c0.561-0.126,1.151-0.247,1.601-0.361c0.395-0.047,1.217-0.365,1.567-0.439
					c0.52-0.182,1.021-0.356,1.497-0.522c0.463-0.176,0.901-0.341,1.292-0.513c0.38-0.174,0.743-0.341,1.021-0.521
					c0.288-0.178,0.538-0.355,0.699-0.544c0.159-0.186,0.29-0.371,0.331-0.515C35.13,84.792,35.138,84.698,35.138,84.698z"/>
			</g>
			<polygon fill="#065D78" points="26.299,114.777 28.286,118.238 24.072,115.685 			"/>
			<polygon fill="#0884AB" points="24.522,109.224 22.058,110.747 23.291,118.68 26.299,114.777 			"/>
			<polygon fill="#05556E" points="30.27,114.777 28.281,118.238 32.496,115.685 			"/>
			<polygon fill="#087EA3" points="32.045,109.224 34.51,110.747 33.277,118.68 30.27,114.777 			"/>
		</g>
		<use xlink:href="#SVGID_17_"  overflow="visible" fill="none" stroke="#EF5350" stroke-miterlimit="10"/>
	</g>
	<g>
		<defs>
			<circle id="SVGID_19_" cx="84.663" cy="37.241" r="25.807"/>
		</defs>
		<use xlink:href="#SVGID_19_"  overflow="visible" fill="#FFFFFF"/>
		<clipPath id="SVGID_4_">
			<use xlink:href="#SVGID_19_"  overflow="visible"/>
		</clipPath>
		<g clip-path="url(#SVGID_4_)">
			<path fill="#D57726" d="M99.423,61.362c0,5.331-4.322,9.653-9.654,9.653h-7.569c-5.333,0-9.654-4.322-9.654-9.653V60.68
				c0-5.331,4.321-9.652,9.654-9.652h7.569c5.332,0,9.654,4.321,9.654,9.652V61.362z"/>
			<path fill="#D16E1C" d="M89.769,51.027h-3.785v19.988h3.785c5.332,0,9.654-4.322,9.654-9.653V60.68
				C99.423,55.349,95.101,51.027,89.769,51.027z"/>
			<path fill="#E8AC86" d="M90.466,53.018c0.002,2.993-4.477,5.965-4.477,5.965s-4.486-2.965-4.488-5.959s1.924-3.785,4.479-3.787
				C88.534,49.234,90.466,50.023,90.466,53.018z"/>
			<path fill="#F7B78F" d="M89.806,52.22c0,2.11-1.711,3.821-3.822,3.821l0,0c-2.11,0-3.822-1.711-3.822-3.821v-5.966
				c0-2.111,1.712-3.822,3.822-3.822l0,0c2.111,0,3.822,1.711,3.822,3.822V52.22z"/>
			<path fill="#E8AC86" d="M85.983,42.432c-2.11,0-3.822,1.711-3.822,3.822v3.237c1.102,0.387,2.414,0.613,3.822,0.613
				c1.409,0,2.721-0.227,3.822-0.613v-3.237C89.806,44.143,88.095,42.432,85.983,42.432z"/>
			<path fill="#D19527" d="M99.423,37.488c0,0-0.99,5.094-4.424,6.467c-0.316-1.146,2.453-13.692,4.266-12.759
				C99.349,31.909,99.591,36.898,99.423,37.488z"/>
			<circle fill="#F7B78F" cx="84.787" cy="34.88" r="14.191"/>
			<circle fill="#F7B78F" cx="99.995" cy="34.88" r="2.97"/>
			<path fill="#FFFFFF" d="M91.134,38.178c0,3.872-3.137,7.01-7.009,7.01s-7.01-3.138-7.01-7.01H91.134z"/>
			<g>
				<circle fill="#262626" cx="77.228" cy="34.916" r="1.589"/>
				<circle fill="#262626" cx="90.198" cy="34.916" r="1.589"/>
			</g>
			<path fill="#D19527" d="M93.669,27.511c0,0,3.697,4.974,5.709,4.617c-0.617-8.109-5.638-12.944-14.594-12.944
				c-7.356,0-9.346,2.613-15.342,0.48C64.862,38.178,86.464,33.686,93.669,27.511z"/>
			<polygon fill="#944C0F" points="83.968,55.464 85.989,58.982 81.704,56.384 			"/>
			<polygon fill="#B05D15" points="82.161,49.816 79.655,51.365 80.909,59.431 83.968,55.464 			"/>
			<polygon fill="#944C0F" points="88.005,55.464 85.983,58.982 90.269,56.384 			"/>
			<polygon fill="#B05D15" points="89.812,49.816 92.317,51.365 91.063,59.431 88.005,55.464 			"/>
		</g>
		<use xlink:href="#SVGID_19_"  overflow="visible" fill="none" stroke="#EF5350" stroke-miterlimit="10"/>
	</g>
	<g>
		<defs>
			<circle id="SVGID_21_" cx="211.788" cy="123.248" r="22.708"/>
		</defs>
		<use xlink:href="#SVGID_21_"  overflow="visible" fill="#FFFFFF"/>
		<clipPath id="SVGID_6_">
			<use xlink:href="#SVGID_21_"  overflow="visible"/>
		</clipPath>
		<g clip-path="url(#SVGID_6_)">
			<path fill="#575757" d="M225.212,147.143c0,5.195-4.213,9.407-9.409,9.407h-7.379c-5.196,0-9.408-4.212-9.408-9.407v-0.666
				c0-5.196,4.212-9.408,9.408-9.408h7.379c5.196,0,9.409,4.212,9.409,9.408V147.143z"/>
			<path fill="#575757" d="M225.212,147.143c0,5.195-4.213,9.407-9.409,9.407h-7.379c-5.196,0-9.408-4.212-9.408-9.407v-0.666
				c0-5.196,4.212-9.408,9.408-9.408h7.379c5.196,0,9.409,4.212,9.409,9.408V147.143z"/>
			<path fill="#474747" d="M215.803,137.068h-3.685v19.481h3.685c5.196,0,9.409-4.212,9.409-9.407v-0.666
				C225.212,141.28,220.999,137.068,215.803,137.068z"/>
			<path fill="#F7F7F7" d="M216.482,139.008c0.003,2.918-4.364,14.271-4.364,14.271s-4.372-11.347-4.374-14.266
				c-0.003-2.917,1.875-3.688,4.365-3.69C214.601,135.321,216.48,136.09,216.482,139.008z"/>
			<polygon fill="#D57726" points="210.898,150.885 212.118,153.279 213.33,150.892 212.72,142.159 211.507,142.159 			"/>
			<path fill="#E8AC86" d="M215.711,138.169c0.002,2.918-3.593,3.366-3.593,3.366s-3.6-0.443-3.603-3.361
				c-0.002-2.917,1.104-2.849,3.594-2.851C214.601,135.321,215.708,135.251,215.711,138.169z"/>
			<path fill="#F7B78F" d="M215.839,137.299c0,2.058-1.669,3.725-3.725,3.725l0,0c-2.059,0-3.726-1.667-3.726-3.725v-4.884
				c0-2.057,1.667-3.725,3.726-3.725l0,0c2.056,0,3.725,1.668,3.725,3.725V137.299z"/>
			<g>
				<polygon fill="#1F1F1F" points="209.724,146.221 208.53,146.417 206.041,148.013 212.118,153.279 				"/>
				<polygon fill="#1F0F07" points="211.306,150.885 204.78,143.667 207.157,138.651 				"/>
			</g>
			<g>
				<polygon fill="#1F1F1F" points="214.507,146.221 215.701,146.417 218.19,148.013 212.114,153.279 				"/>
				<polygon fill="#1F0F07" points="212.926,150.885 219.45,143.667 217.074,138.651 				"/>
			</g>
			
				<ellipse transform="matrix(0.9688 0.2478 -0.2478 0.9688 35.1292 -45.55)" fill="#783B1B" cx="198.501" cy="116.767" rx="2.347" ry="2.477"/>
			<path fill="#E8AC86" d="M212.114,128.69c-2.059,0-3.726,1.668-3.726,3.725v3.155c1.074,0.378,2.352,0.599,3.726,0.599
				c1.373,0,2.65-0.221,3.725-0.599v-3.155C215.839,130.358,214.17,128.69,212.114,128.69z"/>
			<circle fill="#F7B78F" cx="210.946" cy="121.331" r="13.831"/>
			<circle fill="#F7B78F" cx="225.771" cy="121.331" r="2.895"/>
			<g>
				<circle fill="#262626" cx="203.579" cy="122.257" r="1.549"/>
				<circle fill="#262626" cx="216.221" cy="122.257" r="1.549"/>
			</g>
			<polygon fill="#CCCCCC" points="211.037,139.935 212.118,141.535 208.038,140.574 			"/>
			<polygon fill="#854610" points="210.301,139.717 212.118,141.535 208.261,140.152 			"/>
			<polygon fill="#F7F7F7" points="208.389,135.889 205.945,137.398 207.167,141.684 211.037,139.935 			"/>
			<polygon fill="#A8A8A8" points="213.193,139.935 212.114,141.535 216.193,140.574 			"/>
			<polygon fill="#854610" points="213.931,139.717 212.114,141.535 215.971,140.152 			"/>
			<polygon fill="#F7F7F7" points="215.843,135.889 218.285,137.398 217.064,141.684 213.193,139.935 			"/>
			<path fill="#783B1B" d="M226.38,116.383c0.027-1.947-0.922-3.548-2.148-3.686c0.062-0.137,0.117-0.281,0.154-0.434
				c0.34-1.326-0.404-2.661-1.658-2.981c-0.139-0.035-0.275-0.054-0.414-0.062c-0.062-1.023-0.736-1.921-1.734-2.176
				c-0.479-0.122-0.961-0.079-1.396,0.094c-0.211-0.815-0.818-1.485-1.658-1.699c-0.946-0.241-1.912,0.16-2.477,0.94
				c-0.286-0.619-0.818-1.104-1.51-1.279c-1.062-0.271-2.148,0.271-2.664,1.248c-0.289-0.604-0.816-1.074-1.494-1.248
				c-1.097-0.28-2.221,0.306-2.714,1.34c-0.169-0.097-0.352-0.173-0.549-0.223c-1.255-0.322-2.548,0.491-2.887,1.817
				c-0.009,0.036-0.014,0.072-0.021,0.107c-0.174-0.101-0.362-0.182-0.565-0.233c-1.256-0.321-2.548,0.493-2.887,1.818
				c-0.074,0.286-0.094,0.572-0.071,0.85c-1.121,0.006-2.135,0.738-2.418,1.847c-0.261,1.017,0.171,2.05,1.002,2.633
				c-1.179,2.589-1.469,5.078-1.151,6.243c0.309-0.735,0.615-2.262,1.319-3.949c0.155,0.75,0.551,1.318,1.136,1.501
				c0.793,0.246,1.707-0.289,2.338-1.266c0.552,0.932,1.356,1.486,2.17,1.374c0.894-0.123,1.559-1.019,1.788-2.227
				c0.392,1.406,1.356,2.368,2.327,2.229c0.776-0.112,1.348-0.9,1.535-1.957c0.38,0.815,0.986,1.356,1.699,1.401
				c1.134,0.072,2.158-1.125,2.481-2.781c0.382,0.666,0.931,1.1,1.565,1.14c1.047,0.067,2.002-0.95,2.396-2.412
				c0.05,0.136,0.105,0.272,0.168,0.409c0.846,1.84,2.485,2.893,3.663,2.352c0.01-0.005,0.018-0.01,0.027-0.015
				c0.172,1.386,0.85,2.485,1.725,2.814c0.299,1.072,0.51,1.957,0.729,2.37c0.801,1.504,1.111-0.413,0.992-2.758
				C225.878,118.898,226.36,117.73,226.38,116.383z"/>
			<circle fill="#B05D15" cx="212.118" cy="141.535" r="1.591"/>
			<path fill="#FFFFFF" d="M217.133,124.882c0,3.772-3.059,6.831-6.832,6.831s-6.832-3.059-6.832-6.831H217.133z"/>
		</g>
		<use xlink:href="#SVGID_21_"  overflow="visible" fill="none" stroke="#EF5350" stroke-miterlimit="10"/>
	</g>
	<g>
		<defs>
			<circle id="SVGID_23_" cx="252.115" cy="171.177" r="24.994"/>
		</defs>
		<use xlink:href="#SVGID_23_"  overflow="visible" fill="#FFFFFF"/>
		<clipPath id="SVGID_8_">
			<use xlink:href="#SVGID_23_"  overflow="visible"/>
		</clipPath>
		<g clip-path="url(#SVGID_8_)">
			<rect x="238.44" y="165.698" fill="#9D701D" width="28.436" height="27.309"/>
			<path fill="#1F1F1F" d="M265.817,194.307c0,5.145-4.17,9.315-9.312,9.315h-7.307c-5.143,0-9.314-4.171-9.314-9.315v-0.657
				c0-5.145,4.172-9.317,9.314-9.317h7.307c5.143,0,9.312,4.173,9.312,9.317V194.307z"/>
			<g>
				<path fill="#575757" d="M265.825,194.307c0,5.145-4.17,9.315-9.316,9.315h-7.305c-5.145,0-9.316-4.171-9.316-9.315v-0.657
					c0-5.145,4.172-9.317,9.316-9.317h7.305c5.146,0,9.316,4.173,9.316,9.317V194.307z"/>
				<path fill="#575757" d="M265.825,194.307c0,5.145-4.17,9.315-9.316,9.315h-7.305c-5.145,0-9.316-4.171-9.316-9.315v-0.657
					c0-5.145,4.172-9.317,9.316-9.317h7.305c5.146,0,9.316,4.173,9.316,9.317V194.307z"/>
				<path fill="#474747" d="M256.509,184.332h-3.646v19.29h3.646c5.146,0,9.316-4.171,9.316-9.315v-0.657
					C265.825,188.505,261.655,184.332,256.509,184.332z"/>
				<path fill="#F7F7F7" d="M257.183,186.255c0.002,2.887-4.32,14.127-4.32,14.127s-4.33-11.232-4.332-14.121
					c-0.002-2.888,1.857-3.654,4.322-3.654C255.317,182.603,257.181,183.365,257.183,186.255z"/>
				<path fill="#E8AC86" d="M257.177,186.255c0.002,2.887-4.32,4.336-4.32,4.336s-4.328-1.441-4.33-4.33
					c-0.002-2.888,1.855-3.654,4.322-3.654C255.313,182.603,257.175,183.365,257.177,186.255z"/>
				<path fill="#F7B78F" d="M256.54,185.484c0,2.037-1.652,3.688-3.688,3.688l0,0c-2.039,0-3.689-1.65-3.689-3.688v-5.757
					c0-2.037,1.65-3.688,3.689-3.688l0,0c2.035,0,3.688,1.651,3.688,3.688V185.484z"/>
				<polygon fill="#CCCCCC" points="252.854,188.616 252.856,190.591 248.722,189.503 				"/>
				<polygon fill="#A8A8A8" points="252.854,188.616 252.853,190.591 256.985,189.503 				"/>
				<polygon fill="#3AB2A0" points="251.653,198.015 252.862,200.382 254.062,198.021 253.458,189.374 252.259,189.374 				"/>
				<g>
					<polygon fill="#1F1F1F" points="250.491,193.394 249.31,193.589 246.845,195.168 252.862,200.382 					"/>
					<polygon fill="#1F0F07" points="252.058,198.015 245.597,190.868 247.95,185.901 					"/>
				</g>
				<g>
					<polygon fill="#1F1F1F" points="255.226,193.394 256.409,193.589 258.872,195.168 252.856,200.382 					"/>
					<polygon fill="#1F0F07" points="253.659,198.015 260.118,190.868 257.767,185.901 					"/>
				</g>
				<polygon fill="#CCCCCC" points="251.792,187.172 252.862,188.757 248.821,187.806 				"/>
				<polygon fill="#065D78" points="251.062,186.957 252.862,188.757 249.042,187.387 				"/>
				<polygon fill="#A8A8A8" points="253.925,187.172 252.856,188.757 256.897,187.806 				"/>
				<polygon fill="#065D78" points="254.657,186.957 252.856,188.757 256.677,187.387 				"/>
				<path fill="#207D6F" d="M254.437,188.757c0,0.869-0.707,1.575-1.574,1.575c-0.871,0-1.576-0.706-1.576-1.575
					c0-0.87,0.705-0.141,1.576-0.141C253.729,188.616,254.437,187.887,254.437,188.757z"/>
			</g>
			<path fill="#E8AC86" d="M252.853,176.039c-2.039,0-3.689,1.651-3.689,3.688v3.124c1.064,0.375,2.33,0.593,3.689,0.593
				s2.625-0.218,3.688-0.593v-3.124C256.54,177.69,254.888,176.039,252.853,176.039z"/>
			<path fill="#F7B78F" d="M265.388,168.754c0,7.561-6.131,13.691-13.691,13.691c-7.562,0-13.693-6.131-13.693-13.691
				c0-7.564,6.131-13.694,13.693-13.694C259.257,155.06,265.388,161.189,265.388,168.754z"/>
			<path fill="#FFFFFF" d="M257.823,171.935c0,3.736-3.031,6.766-6.766,6.766c-3.736,0-6.764-3.029-6.764-6.766H257.823z"/>
			<g>
				<circle fill="#262626" cx="244.401" cy="168.787" r="1.533"/>
				<circle fill="#262626" cx="256.919" cy="168.787" r="1.533"/>
			</g>
			<polygon fill="#F7F7F7" points="249.163,183.166 246.745,184.661 244.442,192.442 252.854,188.616 			"/>
			<polygon fill="#F0F0F0" points="256.544,183.166 258.962,184.661 261.267,192.442 252.854,188.616 			"/>
			<path fill="#D19527" d="M254.919,161.656c0,0,0.939,2.267,5.021,4.465c1.631,0.878,6.936,0,6.936,0
				c0-8.154-6.607-14.762-14.76-14.762c-8.154,0-14.764,6.607-14.764,14.762c0,0,5.127,0.294,10.498-1.241
				C250.903,164.009,254.919,161.656,254.919,161.656z"/>
			<polygon fill="#D19527" points="261.632,191.881 266.876,193.007 266.876,166.121 261.632,166.121 			"/>
		</g>
		<use xlink:href="#SVGID_23_"  overflow="visible" fill="none" stroke="#EF5350" stroke-miterlimit="10"/>
	</g>
	<g>
		<defs>
			<circle id="SVGID_25_" cx="271.96" cy="84.031" r="25.807"/>
		</defs>
		<use xlink:href="#SVGID_25_"  overflow="visible" fill="#FFFFFF"/>
		<clipPath id="SVGID_10_">
			<use xlink:href="#SVGID_25_"  overflow="visible"/>
		</clipPath>
		<g clip-path="url(#SVGID_10_)">
			<path fill="#3AB2A0" d="M286.485,106.59c0,5.352-4.34,9.69-9.691,9.69h-7.6c-5.354,0-9.691-4.339-9.691-9.69v-0.686
				c0-5.352,4.338-9.69,9.691-9.69h7.6c5.352,0,9.691,4.339,9.691,9.69V106.59z"/>
			<path fill="#E8AC86" d="M277.495,98.213c0.002,3.004-4.496,5.986-4.496,5.986s-4.502-2.975-4.506-5.98
				c-0.002-3.006,1.932-3.801,4.496-3.803C275.556,94.414,277.493,95.207,277.495,98.213z"/>
			<path fill="#F7B78F" d="M276.831,97.411c0,2.119-1.717,3.837-3.838,3.837l0,0c-2.117,0-3.836-1.718-3.836-3.837v-5.99
				c0-2.118,1.719-3.837,3.836-3.837l0,0c2.121,0,3.838,1.719,3.838,3.837V97.411z"/>
			<polygon fill="#CCCCCC" points="270.97,100.667 272.999,104.199 268.696,101.593 			"/>
			<polygon fill="#F7F7F7" points="269.157,95 266.642,96.555 267.899,104.651 270.97,100.667 			"/>
			<polygon fill="#CCCCCC" points="275.022,100.667 272.993,104.199 277.296,101.593 			"/>
			<polygon fill="#F7F7F7" points="276.835,95 279.351,96.555 278.093,104.651 275.022,100.667 			"/>
			<path fill="#E8AC86" d="M272.993,87.584c-2.117,0-3.836,1.719-3.836,3.837v3.25c1.105,0.39,2.422,0.617,3.836,0.617
				c1.416,0,2.73-0.228,3.838-0.617v-3.25C276.831,89.303,275.114,87.584,272.993,87.584z"/>
			<circle fill="#F7B78F" cx="287.06" cy="80.004" r="2.98"/>
			<circle fill="#F7B78F" cx="271.792" cy="80.004" r="14.246"/>
			<path fill="none" stroke="#FFCDAD" stroke-width="6" stroke-linecap="round" stroke-linejoin="round" stroke-miterlimit="10" d="
				M269.733,67.44c-3.953,0.642-7.295,3.102-9.139,6.496"/>
			<path fill="#623016" d="M257.546,80.801v4.262c0,7.867,6.379,14.246,14.246,14.246s14.246-6.379,14.246-14.246v-4.262H257.546z"
				/>
			<path fill="#623016" d="M284.624,82.583c0,0.391,0.316,0.707,0.707,0.707l0,0c0.391,0,0.707-0.316,0.707-0.707v-4.614
				c0-0.391-0.316-0.708-0.707-0.708l0,0c-0.391,0-0.707,0.317-0.707,0.708V82.583z"/>
			<path fill="#FFFFFF" d="M278.165,82.704c0,3.886-3.152,7.036-7.037,7.036c-3.887,0-7.037-3.15-7.037-7.036H278.165z"/>
			<g>
				<circle fill="#262626" cx="264.204" cy="78.035" r="1.596"/>
				<circle fill="#262626" cx="277.226" cy="78.035" r="1.596"/>
			</g>
		</g>
		<use xlink:href="#SVGID_25_"  overflow="visible" fill="none" stroke="#EF5350" stroke-miterlimit="10"/>
	</g>
	<g>
		<defs>
			<circle id="SVGID_27_" cx="176.527" cy="27.241" r="25.807"/>
		</defs>
		<use xlink:href="#SVGID_27_"  overflow="visible" fill="#FFFFFF"/>
		<clipPath id="SVGID_12_">
			<use xlink:href="#SVGID_27_"  overflow="visible"/>
		</clipPath>
		<g clip-path="url(#SVGID_12_)">
			<rect x="162.711" y="21.099" fill="#751417" width="28.73" height="27.591"/>
			<path fill="#1F1F1F" d="M190.371,50.004c0,5.196-4.213,9.41-9.41,9.41h-7.38c-5.197,0-9.411-4.214-9.411-9.41v-0.666
				c0-5.197,4.214-9.412,9.411-9.412h7.38c5.197,0,9.41,4.215,9.41,9.412V50.004z"/>
			<g>
				<path fill="#575757" d="M190.377,50.004c0,5.196-4.213,9.41-9.41,9.41h-7.381c-5.197,0-9.412-4.214-9.412-9.41v-0.666
					c0-5.197,4.215-9.412,9.412-9.412h7.381c5.197,0,9.41,4.215,9.41,9.412V50.004z"/>
				<path fill="#575757" d="M190.377,50.004c0,5.196-4.213,9.41-9.41,9.41h-7.381c-5.197,0-9.412-4.214-9.412-9.41v-0.666
					c0-5.197,4.215-9.412,9.412-9.412h7.381c5.197,0,9.41,4.215,9.41,9.412V50.004z"/>
				<path fill="#474747" d="M180.967,39.926h-3.687v19.488h3.687c5.197,0,9.41-4.214,9.41-9.41v-0.666
					C190.377,44.141,186.164,39.926,180.967,39.926z"/>
				<path fill="#F7F7F7" d="M181.646,41.868c0.002,2.917-4.366,14.273-4.366,14.273s-4.372-11.35-4.375-14.268
					c-0.002-2.918,1.876-3.691,4.366-3.692C179.762,38.179,181.645,38.948,181.646,41.868z"/>
				<path fill="#E8AC86" d="M181.641,41.868c0.003,2.917-4.365,4.381-4.365,4.381s-4.373-1.457-4.375-4.375s1.876-3.691,4.367-3.692
					C179.758,38.179,181.639,38.948,181.641,41.868z"/>
				<path fill="#F7B78F" d="M180.997,41.089c0,2.059-1.669,3.727-3.726,3.727l0,0c-2.059,0-3.727-1.668-3.727-3.727v-5.815
					c0-2.059,1.668-3.727,3.727-3.727l0,0c2.057,0,3.726,1.668,3.726,3.727V41.089z"/>
				<polygon fill="#CCCCCC" points="177.273,44.253 177.275,46.249 173.098,45.15 				"/>
				<polygon fill="#A8A8A8" points="177.273,44.253 177.271,46.249 181.448,45.15 				"/>
				<polygon fill="#3AB2A0" points="176.061,53.748 177.28,56.142 178.492,53.755 177.883,45.02 176.67,45.02 				"/>
				<g>
					<polygon fill="#1F1F1F" points="174.887,49.081 173.691,49.278 171.202,50.874 177.28,56.142 					"/>
					<polygon fill="#1F0F07" points="176.469,53.748 169.942,46.528 172.318,41.511 					"/>
				</g>
				<g>
					<polygon fill="#1F1F1F" points="179.67,49.081 180.864,49.278 183.354,50.874 177.275,56.142 					"/>
					<polygon fill="#1F0F07" points="178.088,53.748 184.613,46.528 182.237,41.511 					"/>
				</g>
				<polygon fill="#CCCCCC" points="176.199,42.794 177.28,44.396 173.199,43.435 				"/>
				<polygon fill="#065D78" points="175.463,42.578 177.28,44.396 173.423,43.012 				"/>
				<polygon fill="#A8A8A8" points="178.355,42.794 177.275,44.396 181.357,43.435 				"/>
				<polygon fill="#065D78" points="179.094,42.578 177.275,44.396 181.134,43.012 				"/>
				<path fill="#207D6F" d="M178.871,44.396c0,0.878-0.712,1.592-1.591,1.592s-1.591-0.714-1.591-1.592
					c0-0.879,0.712-0.143,1.591-0.143S178.871,43.517,178.871,44.396z"/>
			</g>
			<path fill="#E8AC86" d="M177.271,31.547c-2.059,0-3.727,1.668-3.727,3.727v3.156c1.074,0.378,2.354,0.599,3.727,0.599
				s2.651-0.221,3.726-0.599v-3.156C180.997,33.215,179.328,31.547,177.271,31.547z"/>
			<circle fill="#F7B78F" cx="176.104" cy="24.187" r="13.834"/>
			<path fill="#FFFFFF" d="M182.293,27.4c0,3.774-3.061,6.834-6.834,6.834c-3.775,0-6.835-3.06-6.835-6.834H182.293z"/>
			<g>
				<circle fill="#262626" cx="168.734" cy="24.22" r="1.549"/>
				<circle fill="#262626" cx="181.379" cy="24.22" r="1.549"/>
			</g>
			<polygon fill="#F7F7F7" points="173.545,38.747 171.102,40.258 168.773,48.12 177.273,44.253 			"/>
			<polygon fill="#F0F0F0" points="181.002,38.747 183.445,40.258 185.773,48.12 177.273,44.253 			"/>
			<path fill="#96191E" d="M179.359,17.017c0,0,0.947,2.289,5.074,4.51c1.648,0.888,7.008,0,7.008,0
				c0-8.237-6.677-14.914-14.914-14.914s-14.915,6.677-14.915,14.914c0,0,5.18,0.297,10.606-1.254
				C175.303,19.393,179.359,17.017,179.359,17.017z"/>
			<polygon fill="#96191E" points="186.141,47.553 191.441,48.689 191.441,21.526 186.141,21.526 			"/>
		</g>
		<use xlink:href="#SVGID_27_"  overflow="visible" fill="none" stroke="#EF5350" stroke-miterlimit="10"/>
	</g>
	<g>
		<defs>
			<circle id="SVGID_29_" cx="137.931" cy="93.652" r="23.52"/>
		</defs>
		<use xlink:href="#SVGID_29_"  overflow="visible" fill="#FFFFFF"/>
		<clipPath id="SVGID_14_">
			<use xlink:href="#SVGID_29_"  overflow="visible"/>
		</clipPath>
		<g clip-path="url(#SVGID_14_)">
			<rect x="123.823" y="89.657" fill="#1F0F07" width="28.562" height="17.543"/>
			<path fill="#1F1F1F" d="M151.321,118.389c0,5.169-4.189,9.357-9.357,9.357h-7.335c-5.167,0-9.356-4.188-9.356-9.357v-0.659
				c0-5.167,4.189-9.357,9.356-9.357h7.335c5.168,0,9.357,4.19,9.357,9.357V118.389z"/>
			<path fill="#E8AC86" d="M142.642,110.303c0.002,2.901-4.34,4.356-4.34,4.356s-4.348-1.449-4.351-4.351
				c-0.002-2.9,1.865-3.668,4.342-3.67C140.769,106.636,142.641,107.401,142.642,110.303z"/>
			<path fill="#F7B78F" d="M142.001,109.53c0,2.045-1.658,3.704-3.704,3.704l0,0c-2.046,0-3.704-1.659-3.704-3.704v-5.782
				c0-2.047,1.658-3.704,3.704-3.704l0,0c2.046,0,3.704,1.657,3.704,3.704V109.53z"/>
			<path fill="#E8AC86" d="M138.297,100.044c-2.046,0-3.704,1.657-3.704,3.704v3.136c1.066,0.377,2.338,0.597,3.704,0.597
				s2.637-0.22,3.704-0.597v-3.136C142.001,101.701,140.343,100.044,138.297,100.044z"/>
			<circle fill="#F7B78F" cx="137.137" cy="92.724" r="13.753"/>
			<path fill="#FFFFFF" d="M143.289,95.921c0,3.753-3.042,6.795-6.794,6.795s-6.793-3.042-6.793-6.795H143.289z"/>
			<g>
				<circle fill="#262626" cx="129.811" cy="92.759" r="1.541"/>
				<circle fill="#262626" cx="142.381" cy="92.759" r="1.541"/>
			</g>
			<polygon fill="#CCCCCC" points="138.299,112.674 138.302,114.659 134.149,113.566 			"/>
			<polygon fill="#F7F7F7" points="134.593,107.2 132.164,108.702 133.379,116.519 138.299,112.674 			"/>
			<polygon fill="#A8A8A8" points="138.299,112.674 138.297,114.659 142.449,113.566 			"/>
			<polygon fill="#F0F0F0" points="142.007,107.2 144.436,108.702 143.221,116.519 138.299,112.674 			"/>
			<path fill="#1F1F1F" d="M138.97,84.921l0.373,5.161h13.043c0-8.188-6.64-14.828-14.829-14.828
				c-8.188,0-14.826,6.64-14.826,14.828h15.655L138.97,84.921z"/>
			<polygon fill="#1F1F1F" points="147.113,106.071 152.386,107.2 152.386,90.082 147.113,90.082 			"/>
		</g>
		<use xlink:href="#SVGID_29_"  overflow="visible" fill="none" stroke="#EF5350" stroke-miterlimit="10"/>
	</g>
	<g>
		<defs>
			<circle id="SVGID_31_" cx="100.271" cy="168.564" r="22.517"/>
		</defs>
		<use xlink:href="#SVGID_31_"  overflow="visible" fill="#FFFFFF"/>
		<clipPath id="SVGID_16_">
			<use xlink:href="#SVGID_31_"  overflow="visible"/>
		</clipPath>
		<g clip-path="url(#SVGID_16_)">
			<path fill="#0884AB" d="M111.69,190.766c0,4.331-3.512,7.843-7.843,7.843h-6.151c-4.331,0-7.841-3.512-7.841-7.843v-0.554
				c0-4.332,3.51-7.842,7.841-7.842h6.151c4.331,0,7.843,3.51,7.843,7.842V190.766z"/>
			<path fill="#077394" d="M103.848,182.37h-3.076v16.238h3.076c4.331,0,7.843-3.512,7.843-7.843v-0.554
				C111.69,185.88,108.179,182.37,103.848,182.37z"/>
			<path fill="#C29165" d="M97.696,182.37c-0.181,0-0.357,0.007-0.535,0.02c-0.02,0.169-0.031,0.343-0.031,0.534
				c0.002,2.432,3.646,4.84,3.646,4.84s3.641-2.413,3.639-4.846c0-0.188-0.013-0.361-0.031-0.528
				c-0.178-0.013-0.355-0.02-0.535-0.02H97.696z"/>
			<path fill="#CF9A6B" d="M103.877,182.27c0,1.715-1.39,3.105-3.105,3.105l0,0c-1.715,0-3.104-1.391-3.104-3.105v-4.846
				c0-1.716,1.389-3.105,3.104-3.105l0,0c1.716,0,3.105,1.39,3.105,3.105V182.27z"/>
			<circle fill="#1F1F1F" cx="100.163" cy="163.267" r="13.067"/>
			<path fill="#AD815A" d="M100.771,175.387c-1.715,0-3.104,1.389-3.104,3.104v2.629c0.895,0.316,1.96,0.501,3.104,0.501
				c1.145,0,2.211-0.185,3.105-0.501v-2.629C103.877,176.775,102.487,175.387,100.771,175.387z"/>
			<circle fill="#CF9A6B" cx="99.799" cy="169.252" r="11.528"/>
			<path fill="#1F1F1F" d="M98.878,161.193c8.403-0.271,12.449,5.79,12.797,8.258c0.992-1.842,1.556-3.947,1.556-6.185
				c0-7.218-5.851-13.067-13.067-13.067c-7.216,0-13.067,5.85-13.067,13.067c0,1.728,0.578,3.939,1.188,5.448
				C89.395,165.479,91.962,161.416,98.878,161.193z"/>
			<circle fill="#CF9A6B" cx="112.155" cy="169.252" r="2.413"/>
			<g>
				<circle fill="#262626" cx="93.659" cy="169.28" r="1.291"/>
				<circle fill="#262626" cx="104.196" cy="169.28" r="1.291"/>
			</g>
			<path fill="#FFFFFF" d="M105.495,172.05c0,3.146-2.55,5.695-5.695,5.695s-5.695-2.55-5.695-5.695H105.495z"/>
		</g>
		<g clip-path="url(#SVGID_16_)">
			<g>
				<path d="M20.811,140.812c1.935,0,1.935-3,0-3S18.876,140.812,20.811,140.812L20.811,140.812z"/>
			</g>
		</g>
		<g clip-path="url(#SVGID_16_)">
			<g>
				<path d="M20.811,140.812c1.935,0,1.935-3,0-3S18.876,140.812,20.811,140.812L20.811,140.812z"/>
			</g>
		</g>
		<use xlink:href="#SVGID_31_"  overflow="visible" fill="none" stroke="#EF5350" stroke-miterlimit="10"/>
	</g>
</g>
</svg>
