<?xml version="1.0" encoding="utf-8"?>
<!-- Generator: Adobe Illustrator 16.0.0, SVG Export Plug-In . SVG Version: 6.00 Build 0)  -->
<!DOCTYPE svg PUBLIC "-//W3C//DTD SVG 1.1//EN" "http://www.w3.org/Graphics/SVG/1.1/DTD/svg11.dtd">
<svg version="1.1" id="Layer_1" xmlns="http://www.w3.org/2000/svg" xmlns:xlink="http://www.w3.org/1999/xlink" x="0px" y="0px"
	 width="490.674px" height="99.593px" viewBox="0 -3.407 490.674 99.593" enable-background="new 0 -3.407 490.674 99.593"
	 xml:space="preserve">
<path fill="#333333" d="M1.995,85.092h10.412V38.174H1.337v-9.884h11.07v-3.294c0-21.35,16.079-23.986,23.986-23.986
	c3.559,0,6.062,0.396,6.062,0.396v10.543c0,0-1.713-0.396-4.745-0.396c-4.217,0-12.52,1.186-12.52,13.179v3.558h16.079v9.884H25.191
	v46.918h12.256v9.884H1.995V85.092z"/>
<path fill="#333333" d="M56.532,85.092h10.016V41.073c0-1.977-1.054-2.899-2.899-2.899h-8.303v-9.884H70.37
	c5.799,0,8.566,2.373,8.566,7.776v4.217c0,2.636-0.263,4.613-0.263,4.613h0.263c3.031-9.752,10.807-17.396,21.086-17.396
	c1.713,0,3.295,0.264,3.295,0.264v12.652c0,0-1.582-0.396-3.69-0.396c-14.233,0-20.296,14.365-20.296,27.413v17.66h9.884v9.884
	H56.532V85.092z"/>
<path fill="#333333" d="M117.513,85.092h10.411V38.174h-11.07v-9.884h23.854v56.802h10.544v9.884h-33.738V85.092z M127.66,1.931
	h13.442v13.047H127.66V1.931z"/>
<path fill="#333333" d="M165.921,85.092h10.411V38.174h-11.07v-9.884h11.07v-3.294c0-21.35,16.078-23.986,23.986-23.986
	c3.558,0,6.062,0.396,6.062,0.396v10.543c0,0-1.713-0.396-4.744-0.396c-4.217,0-12.521,1.186-12.521,13.179v3.558h16.079v9.884
	h-16.079v46.918h12.257v9.884h-35.451V85.092z"/>
<path fill="#333333" d="M220.458,85.092h10.016V41.073c0-1.977-1.055-2.899-2.899-2.899h-8.303v-9.884h15.024
	c5.799,0,8.566,2.373,8.566,7.776v4.217c0,2.636-0.264,4.613-0.264,4.613h0.264c3.031-9.752,10.807-17.396,21.086-17.396
	c1.714,0,3.295,0.264,3.295,0.264v12.652c0,0-1.581-0.396-3.69-0.396c-14.233,0-20.295,14.365-20.295,27.413v17.66h9.884v9.884
	h-32.684V85.092z"/>
<path fill="#333333" d="M313.542,26.708c19.9,0,35.979,14.628,35.979,34.792c0,20.296-16.079,35.056-35.979,35.056
	s-35.979-14.76-35.979-35.056C277.564,41.337,293.642,26.708,313.542,26.708z M313.542,85.486c12.521,0,22.932-10.016,22.932-23.985
	c0-13.838-10.411-23.722-22.932-23.722c-12.651,0-22.932,9.884-22.932,23.722C290.611,75.47,300.891,85.486,313.542,85.486z"/>
<path fill="#333333" d="M362.729,85.092h10.411v-44.15c0-1.845-1.055-2.768-2.899-2.768h-8.171v-9.884h15.024
	c5.667,0,8.435,2.504,8.435,7.38v3.427c0,2.108-0.396,3.822-0.396,3.822h0.264c3.295-7.907,12.915-16.21,23.722-16.21
	c10.675,0,17.265,4.876,19.505,15.683h0.264c3.69-8.303,12.916-15.683,23.854-15.683c14.76,0,21.745,8.566,21.745,25.567v32.816
	h10.543v9.884h-23.326V55.043c0-9.357-1.714-16.737-11.729-16.737c-12.521,0-19.637,12.784-19.637,25.963v20.823h10.411v9.884
	h-23.195V55.043c0-8.698-1.317-16.737-11.598-16.737c-12.651,0-20.031,13.442-20.031,26.49v20.296h10.543v9.884h-33.738V85.092z"/>
</svg>
